<?xml version="1.0" standalone="no"?>
<!DOCTYPE svg PUBLIC "-//W3C//DTD SVG 20010904//EN"
 "http://www.w3.org/TR/2001/REC-SVG-20010904/DTD/svg10.dtd">
<svg version="1.0" xmlns="http://www.w3.org/2000/svg"
 width="700.000000pt" height="700.000000pt" viewBox="0 0 700.000000 700.000000"
 preserveAspectRatio="xMidYMid meet">
<metadata>
Created by potrace 1.11, written by Peter Selinger 2001-2013
</metadata>
<g transform="translate(0.000000,700.000000) scale(0.100000,-0.100000)"
fill="#000000" stroke="none">
<path d="M0 5353 l1 -1648 27 32 c15 18 322 363 682 767 l654 734 371 7 c203
3 1200 5 2215 3 1441 -3 1861 -7 1920 -17 324 -55 527 -221 584 -478 13 -58
16 -134 16 -385 0 -347 6 -411 48 -478 50 -81 180 -130 390 -146 l92 -7 0
1632 0 1631 -3500 0 -3500 0 0 -1647z"/>
<path d="M1744 4752 c-27 -17 -1044 -1227 -1044 -1241 0 -9 232 -296 516 -638
l515 -623 2014 0 c1427 0 2029 3 2065 11 63 13 116 57 130 107 6 22 10 173 10
365 0 363 8 434 60 537 36 70 117 146 199 185 33 16 61 34 61 40 0 6 -28 25
-62 42 -120 59 -189 138 -231 266 -19 57 -21 94 -26 444 -6 365 -7 383 -27
409 -30 41 -63 62 -129 81 -56 17 -178 18 -2050 20 -1094 2 -1995 0 -2001 -5z
m631 -257 c227 -40 409 -219 461 -451 25 -112 16 -284 -19 -384 -41 -114 -130
-234 -215 -290 l-24 -15 155 -413 c104 -276 151 -415 143 -418 -6 -2 -93 -3
-191 -2 l-180 3 -131 365 -130 365 -112 3 -112 3 -2 -368 -3 -368 -177 -3
-178 -2 0 995 0 995 318 0 c228 -1 339 -5 397 -15z m1087 -807 l3 -823 408 -3
407 -2 -2 -168 -3 -167 -587 -3 -588 -2 0 995 0 995 180 0 180 0 2 -822z
m1489 512 c82 -191 136 -307 142 -301 5 5 66 143 136 308 l126 298 183 3 182
2 0 -995 0 -995 -180 0 -180 0 0 635 c0 349 -3 635 -8 635 -4 0 -48 -81 -97
-180 l-90 -180 -78 0 -79 0 -91 188 -92 187 -5 -640 -5 -640 -177 -3 -178 -2
0 995 0 995 179 0 179 0 133 -310z"/>
<path d="M2020 3885 l0 -285 105 0 c131 0 193 13 252 53 67 46 105 118 111
212 6 100 -16 164 -78 226 -64 63 -117 79 -272 79 l-118 0 0 -285z"/>
<path d="M0 1657 l0 -1657 3500 0 3500 0 0 1626 0 1627 -97 -7 c-233 -17 -352
-68 -402 -175 l-26 -56 -5 -380 -6 -380 -27 -78 c-53 -153 -146 -257 -291
-327 -109 -53 -212 -78 -370 -90 -82 -6 -944 -10 -2283 -10 l-2151 0 -60 68
c-33 37 -328 382 -657 767 -329 385 -604 707 -611 715 -12 12 -14 -236 -14
-1643z"/>
</g>
</svg>
