<svg xmlns="http://www.w3.org/2000/svg" width="84.211" height="35.427" viewBox="0 0 78.947 33.213"><g fill="#fff" letter-spacing="0" word-spacing="0"><path style="line-height:100%" d="M6.613 16.608L20.937 29.08v4.086h-4.228L0 18.366v-3.71L16.993.14h3.944v4.086L6.613 16.413z" font-weight="400" font-size="40" font-family="sans-serif"/><path d="M26.253 10.205v5.479h.833q1.155 0 1.678-.108.9-.188 1.45-.9.551-.711.551-1.732 0-1.02-.55-1.732-.551-.711-1.45-.9-.538-.107-1.68-.107h-.832zm-3.437-3.222h4.243q1.987 0 2.833.201 1.907.457 3.102 2 1.208 1.531 1.208 3.76 0 1.679-.711 2.995-.698 1.302-1.907 2.068l2.954 7.882h-3.652l-2.498-6.996q-.403.013-1.33.013h-.805v6.983h-3.437V6.983zM36.552 25.889V6.983h3.438v15.683h7.734v3.223H36.552zM52.867 25.889H49.43V6.983h3.437l2.511 5.88h.148l2.497-5.88h3.438v18.906h-3.438V13.858h-.134l-1.705 3.437h-1.477L53 13.804h-.134v12.085z" style="line-height:100%;-inkscape-font-specification:'Monoid Nerd Font Mono, Bold Semi-Condensed';text-align:start" font-weight="700" font-stretch="semi-condensed" font-size="27.5" font-family="Monoid Nerd Font Mono"/><path d="M72.053 16.56c-1.133-.429-1.934-1.028-2.403-1.796-.468-.768-.703-1.875-.703-3.32V6.501c0-.625-.208-1.061-.625-1.309-.416-.26-1.041-.39-1.875-.39V.115c2.331 0 4.16.521 5.489 1.563 1.34 1.042 2.011 2.65 2.011 4.824v4.941c0 1.055.417 1.797 1.25 2.227.847.43 2.097.645 3.75.645v4.687c-1.653 0-2.903.215-3.75.645-.833.43-1.25 1.171-1.25 2.226v4.942c0 2.174-.67 3.782-2.011 4.824-1.328 1.041-3.158 1.562-5.489 1.562v-4.687c.834 0 1.459-.124 1.875-.371.417-.26.625-.703.625-1.328v-4.942c0-1.445.235-2.552.703-3.32.47-.768 1.27-1.367 2.403-1.797zM64.382 4.676H22.699V0h41.683M64.382 33.213H22.699v-4.676h41.683" style="line-height:100%;-inkscape-font-specification:'Monoid Nerd Font Mono, Bold Semi-Condensed';text-align:start" font-weight="700" font-stretch="semi-condensed" font-size="40" font-family="Monoid Nerd Font Mono"/></g></svg>