<?xml version="1.0" encoding="UTF-8" standalone="no"?>
<!-- Created with Inkscape (http://www.inkscape.org/) -->

<svg
   xmlns:dc="http://purl.org/dc/elements/1.1/"
   xmlns:cc="http://creativecommons.org/ns#"
   xmlns:rdf="http://www.w3.org/1999/02/22-rdf-syntax-ns#"
   xmlns:svg="http://www.w3.org/2000/svg"
   xmlns="http://www.w3.org/2000/svg"
   xmlns:sodipodi="http://sodipodi.sourceforge.net/DTD/sodipodi-0.dtd"
   xmlns:inkscape="http://www.inkscape.org/namespaces/inkscape"
   width="26.600454mm"
   height="12.506813mm"
   viewBox="0 0 94.253578 44.315479"
   id="svg4676"
   version="1.1"
   inkscape:version="0.91 r13725"
   sodipodi:docname="RLM-brand-logo-white.svg">
  <defs
     id="defs4678" />
  <sodipodi:namedview
     id="base"
     pagecolor="#ffffff"
     bordercolor="#666666"
     borderopacity="1.0"
     inkscape:pageopacity="0.0"
     inkscape:pageshadow="2"
     inkscape:zoom="1.4"
     inkscape:cx="43.555356"
     inkscape:cy="-132.12798"
     inkscape:document-units="px"
     inkscape:current-layer="layer1"
     showgrid="false"
     fit-margin-top="0"
     fit-margin-left="0"
     fit-margin-right="0"
     fit-margin-bottom="0"
     inkscape:window-width="1861"
     inkscape:window-height="1056"
     inkscape:window-x="59"
     inkscape:window-y="24"
     inkscape:window-maximized="1" />
  <metadata
     id="metadata4681">
    <rdf:RDF>
      <cc:Work
         rdf:about="">
        <dc:format>image/svg+xml</dc:format>
        <dc:type
           rdf:resource="http://purl.org/dc/dcmitype/StillImage" />
        <dc:title></dc:title>
      </cc:Work>
    </rdf:RDF>
  </metadata>
  <g
     inkscape:label="Layer 1"
     inkscape:groupmode="layer"
     id="layer1"
     transform="translate(-107.15893,-127.34732)">
    <path
       d="m 107.15893,127.34732 16.6667,0 0,6.25 -10,0 0,31.81548 10,0 0,6.25 -16.6667,0 z"
       style="font-style:normal;font-variant:normal;font-weight:bold;font-stretch:semi-condensed;font-size:40px;line-height:100%;font-family:'Monoid Nerd Font Mono';-inkscape-font-specification:'Monoid Nerd Font Mono, Bold Semi-Condensed';text-align:start;letter-spacing:0px;word-spacing:0px;writing-mode:lr-tb;text-anchor:start;fill:#ffffff;fill-opacity:1;stroke:none;stroke-width:1px;stroke-linecap:butt;stroke-linejoin:miter;stroke-opacity:1"
       id="path4601"
       inkscape:connector-curvature="0"
       sodipodi:nodetypes="ccccccccc" />
    <path
       inkscape:connector-curvature="0"
       d="m 131.15373,140.97158 0,7.30468 1.11,0 q 1.5397,0 2.238,-0.14323 1.1995,-0.25065 1.9336,-1.19954 0.734,-0.94889 0.734,-2.30957 0,-1.36068 -0.734,-2.30957 -0.7341,-0.94889 -1.9336,-1.19954 -0.7162,-0.14323 -2.238,-0.14323 l -1.11,0 z m -4.5833,-4.29688 5.6575,0 q 2.6497,0 3.7777,0.26856 2.5423,0.60872 4.1357,2.66764 1.6113,2.04102 1.6113,5.01302 0,2.23796 -0.9488,3.99251 -0.931,1.73666 -2.5424,2.75716 l 3.9388,10.50944 -4.8698,0 -3.33,-9.32779 q -0.5371,0.0179 -1.7725,0.0179 l -1.0742,0 0,9.30989 -4.5833,0 0,-25.20833 z"
       style="font-style:normal;font-variant:normal;font-weight:bold;font-stretch:semi-condensed;font-size:27.5px;line-height:100%;font-family:'Monoid Nerd Font Mono';-inkscape-font-specification:'Monoid Nerd Font Mono, Bold Semi-Condensed';text-align:start;letter-spacing:0px;word-spacing:0px;writing-mode:lr-tb;text-anchor:start;fill:#ffffff;fill-opacity:1;stroke:none;stroke-width:1px;stroke-linecap:butt;stroke-linejoin:miter;stroke-opacity:1"
       id="path4603" />
    <path
       inkscape:connector-curvature="0"
       d="m 144.88583,161.88303 0,-25.20833 4.5833,0 0,20.91146 10.3125,0 0,4.29687 -14.8958,0 z"
       style="font-style:normal;font-variant:normal;font-weight:bold;font-stretch:semi-condensed;font-size:27.5px;line-height:100%;font-family:'Monoid Nerd Font Mono';-inkscape-font-specification:'Monoid Nerd Font Mono, Bold Semi-Condensed';text-align:start;letter-spacing:0px;word-spacing:0px;writing-mode:lr-tb;text-anchor:start;fill:#ffffff;fill-opacity:1;stroke:none;stroke-width:1px;stroke-linecap:butt;stroke-linejoin:miter;stroke-opacity:1"
       id="path4605" />
    <path
       inkscape:connector-curvature="0"
       d="m 166.63873,161.88303 -4.5833,0 0,-25.20833 4.5833,0 3.348,7.8418 0.1969,0 3.3301,-7.8418 4.5833,0 0,25.20833 -4.5833,0 0,-16.04166 -0.179,0 -2.2738,4.58333 -1.9694,0 -2.2737,-4.65495 -0.1791,0 0,16.11328 z"
       style="font-style:normal;font-variant:normal;font-weight:bold;font-stretch:semi-condensed;font-size:27.5px;line-height:100%;font-family:'Monoid Nerd Font Mono';-inkscape-font-specification:'Monoid Nerd Font Mono, Bold Semi-Condensed';text-align:start;letter-spacing:0px;word-spacing:0px;writing-mode:lr-tb;text-anchor:start;fill:#ffffff;fill-opacity:1;stroke:none;stroke-width:1px;stroke-linecap:butt;stroke-linejoin:miter;stroke-opacity:1"
       id="path4607" />
    <path
       d="m 192.21981,149.44553 c -1.51042,-0.57291 -2.57813,-1.37152 -3.20313,-2.39583 -0.62505,-1.02431 -0.93755,-2.5 -0.93755,-4.42708 l 0,-6.58854 c 0,-0.83333 -0.2777,-1.41493 -0.8333,-1.7448 -0.5555,-0.34722 -1.3889,-0.52083 -2.5,-0.52083 l 0,-6.25 c 3.1077,0 5.5469,0.69444 7.31773,2.08333 1.78819,1.38889 2.68229,3.53299 2.68229,6.4323 l 0,6.58854 c 0,1.40625 0.55555,2.39583 1.66666,2.96875 1.12847,0.57291 2.79514,0.85937 5,0.85937 l 0,6.25 c -2.20486,0 -3.87153,0.28646 -5,0.85938 -1.11111,0.57291 -1.66666,1.5625 -1.66666,2.96875 l 0,6.58854 c 0,2.89931 -0.8941,5.0434 -2.68229,6.43229 -1.77083,1.38889 -4.21003,2.08333 -7.31773,2.08333 l 0,-6.25 c 1.1111,0 1.9445,-0.16493 2.5,-0.49479 0.5556,-0.34722 0.8333,-0.9375 0.8333,-1.77083 l 0,-6.58854 c 0,-1.92709 0.3125,-3.40278 0.93755,-4.42709 0.625,-1.0243 1.69271,-1.82291 3.20313,-2.39583 z"
       style="font-style:normal;font-variant:normal;font-weight:bold;font-stretch:semi-condensed;font-size:40px;line-height:100%;font-family:'Monoid Nerd Font Mono';-inkscape-font-specification:'Monoid Nerd Font Mono, Bold Semi-Condensed';text-align:start;letter-spacing:0px;word-spacing:0px;writing-mode:lr-tb;text-anchor:start;fill:#ffffff;fill-opacity:1;stroke:none;stroke-width:1px;stroke-linecap:butt;stroke-linejoin:miter;stroke-opacity:1"
       id="path4609"
       inkscape:connector-curvature="0"
       sodipodi:nodetypes="csssccccssccccssccccssscc" />
    <path
       style="font-style:normal;font-variant:normal;font-weight:bold;font-stretch:semi-condensed;font-size:40px;line-height:100%;font-family:'Monoid Nerd Font Mono';-inkscape-font-specification:'Monoid Nerd Font Mono, Bold Semi-Condensed';text-align:start;letter-spacing:0px;word-spacing:0px;writing-mode:lr-tb;text-anchor:start;fill:#ffffff;fill-opacity:1;stroke:none;stroke-width:1px;stroke-linecap:butt;stroke-linejoin:miter;stroke-opacity:1"
       d="m 181.99173,133.59974 -55.5774,0 0,-6.23511 55.5774,0"
       id="path4601-3"
       inkscape:connector-curvature="0"
       sodipodi:nodetypes="cccc" />
    <path
       style="font-style:normal;font-variant:normal;font-weight:bold;font-stretch:semi-condensed;font-size:40px;line-height:100%;font-family:'Monoid Nerd Font Mono';-inkscape-font-specification:'Monoid Nerd Font Mono, Bold Semi-Condensed';text-align:start;letter-spacing:0px;word-spacing:0px;writing-mode:lr-tb;text-anchor:start;fill:#ffffff;fill-opacity:1;stroke:none;stroke-width:1px;stroke-linecap:butt;stroke-linejoin:miter;stroke-opacity:1"
       d="m 181.99173,171.64884 -55.5774,0 0,-6.23511 55.5774,0"
       id="path4601-3-3"
       inkscape:connector-curvature="0"
       sodipodi:nodetypes="cccc" />
  </g>
</svg>
